<svg xmlns="http://www.w3.org/2000/svg" viewBox="0 0 130.41 285.47"><defs><style>.a{fill:#ee8764;}.b{fill:#46a3ff;}.c{fill:#ff5b40;}.d{fill:#ffc924;}.e{fill:#224374;}</style></defs><path class="a" d="M10.44,52C3.23,55.93-4.14,70.26,5.14,79.8s29.78,11.5,40,6.36c11.64-5.84,21.25-31,21.36-40.29s.43-17.93,4.14-18.2S81,28.8,85.53,24,87.88,8.41,78.83,2.4c-8.06-5.35-17.14-2.6-17.49,17-.23,12.86-3.77,23.06-9.44,31s-12,7.15-16.81,6.36S18.66,47.59,10.44,52Z"/><path class="b" d="M55.11,60.45c3.11-8.89,9.38-18.16,21-19.75s21.93-3.17,33.33.28,21.43,11.52,20.9,28.75-12,43.25-37.63,43.2c-19.14,0-33.57-13.5-36.75-26.76S53.25,65.75,55.11,60.45Z"/><path class="c" d="M54.05,101.8c2.4,8.53,13.25,6.1,17-6.63s-1.32-17.23,5-22.53S88.51,71.05,94.87,61s5.3-26.77-6.63-27.83-15.64.79-17,2.65S67.88,44.15,66.53,52,63.06,74.76,61.2,79.27,51.66,93.32,54.05,101.8Z"/><path class="d" d="M53.07,41.41C48.75,51,39.58,53.67,33.23,50.82s-7.39-12.73-3.67-22.61C33.88,16.76,43.26,15,49.61,17.81S57.4,31.78,53.07,41.41Z"/><path class="e" d="M7.64,121.84Q0,116.32,0,104.14T7.67,86.28q7.66-5.69,23.11-5.68h48.4q29.1,0,29.1,23.75,0,12.27-7.4,17.64t-21.7,5.39H30.78Q15.27,127.38,7.64,121.84Zm10-23.59q-3.68,1.41-3.67,5.8c0,2.92,1.25,4.85,3.76,5.77s6.8,1.38,12.89,1.38H79.9q7.51,0,11-1.41c2.31-.94,3.46-2.79,3.46-5.53a5.86,5.86,0,0,0-3.46-5.77Q87.42,96.82,80,96.83H30.6Q21.29,96.83,17.62,98.25Z"/><path class="e" d="M31,134.63H40.4V149.9H29.76q-8.84,0-12.42,1.5a5.59,5.59,0,0,0-3.57,5.65q0,4.15,2.94,5.5c2,.91,5.17,1.36,9.62,1.36A26.47,26.47,0,0,0,38,161.5a41.52,41.52,0,0,0,10.37-7.63l8-7.82a48.18,48.18,0,0,1,11.85-8.51,31.63,31.63,0,0,1,14.19-3q13.09,0,19.47,5.05t6.38,17.37q0,12.33-7.43,16.69T79.18,178H72.63V163.13H80.2q7.69,0,11-1.33a5,5,0,0,0,3.34-5.08c0-2.5-.84-4.31-2.53-5.41s-4.2-1.65-7.57-1.65a16.54,16.54,0,0,0-8.06,1.68,43.6,43.6,0,0,0-7.69,6.07l-9.44,8.72A55.37,55.37,0,0,1,44.91,176,37.53,37.53,0,0,1,29,179.36q-14.85,0-21.95-5T0,156.9q0-12.48,7.91-17.37T31,134.63Z"/><path class="e" d="M1.2,186.76H107v24.29q0,12.33-7.49,16.87T77.2,232.7H75q-15.75,0-23.9-4.48t-8.14-16.63v-8.71H1.2Zm55,16.12v5.53c0,3.4,1.32,5.62,3.94,6.64s7.63,1.53,15,1.53h2q9.38-.06,13.4-1.65c2.69-1.06,4-3.2,4-6.4v-5.65Z"/><path class="e" d="M7.64,279.94Q0,274.4,0,262.23t7.67-17.85q7.66-5.69,23.11-5.69h48.4q29.1,0,29.1,23.75,0,12.27-7.4,17.65t-21.7,5.38H30.78Q15.27,285.47,7.64,279.94Zm10-23.6q-3.68,1.41-3.67,5.8t3.76,5.77q3.75,1.38,12.89,1.39H79.9q7.51,0,11-1.42t3.46-5.53a5.87,5.87,0,0,0-3.46-5.77q-3.45-1.65-10.91-1.65H30.6Q21.29,254.93,17.62,256.34Z"/></svg>