<svg xmlns="http://www.w3.org/2000/svg" viewBox="0 0 365.14 211.83"><path d="M110.67,136.25h-.08c-23.93,0-40.85-16.79-44.63-32.53-3.38-14-3.71-23.67-1.08-31.19,3.45-9.84,10.7-22,25.68-24l1.36-.19c13.72-1.88,25.56-3.5,38.92.54,12,3.62,26.14,12.64,25.45,35C155.62,105.62,141,136.25,110.67,136.25ZM65.31,72.69l.43.15c-2.56,7.33-2.22,16.79,1.11,30.67,3.69,15.4,20.28,31.78,43.74,31.83h.08c29.74,0,44.05-30.11,44.7-51.51.68-21.8-13.11-30.59-24.8-34.12-13.16-4-24.91-2.37-38.52-.51l-1.37.19c-14.52,2-21.58,13.84-24.94,23.45Z"/><path d="M109,129.24h-.07c-21.29,0-36.36-14.94-39.72-28.95-3-12.5-3.3-21.06-1-27.75C71.28,63.78,77.74,53,91.08,51.13L92.3,51c12.19-1.67,22.72-3.11,34.6.48,10.68,3.23,23.28,11.26,22.66,31.18C149,102,136,129.24,109,129.24ZM68.64,72.69l.44.15c-2.28,6.51-2,14.91,1,27.24,3.28,13.67,18,28.21,38.83,28.25H109c26.41,0,39.1-26.73,39.69-45.74.59-19.34-11.64-27.14-22-30.27-11.69-3.54-22.13-2.11-34.22-.45L91.2,52C78.32,53.79,72.06,64.32,69.08,72.84Z"/><path d="M107.26,122.24h-.07c-18.66,0-31.86-13.1-34.81-25.38-2.63-11-2.89-18.45-.83-24.32,2.68-7.68,8.35-17.17,20-18.77l1.06-.14c10.68-1.46,19.9-2.73,30.31.42,9.36,2.83,20.4,9.87,19.87,27.34C142.31,98.36,130.93,122.23,107.26,122.24ZM109.21,53a121.57,121.57,0,0,0-16.42,1.52l-1.07.15C80.48,56.21,75,65.4,72.41,72.85h0c-2,5.68-1.73,13,.86,23.8,3.7,15.41,20.15,24.65,33.92,24.67h.06c23.07,0,34.16-23.36,34.67-40,.52-16.89-10.16-23.7-19.21-26.44A46,46,0,0,0,109.21,53Z"/><path d="M105.55,115.23h-.06c-16,0-27.37-11.26-29.9-21.8-2.26-9.4-2.48-15.84-.71-20.88,2.31-6.6,7.18-14.76,17.24-16.13l.92-.13c9.16-1.25,17.07-2.33,26,.37,8,2.43,17.53,8.48,17.07,23.49C135.66,94.72,125.88,115.23,105.55,115.23Zm1.67-59.34a105.34,105.34,0,0,0-14.06,1.3l-.92.13c-9.6,1.31-14.27,9.17-16.5,15.53h0C74,77.71,74.26,84,76.48,93.22c3.16,13.18,17.24,21.07,29,21.09h.06c19.73,0,29.21-20,29.65-34.19.44-14.43-8.69-20.25-16.43-22.59A39.17,39.17,0,0,0,107.22,55.89Z"/><path d="M103.84,108.22h0c-13.4,0-22.87-9.41-25-18.22-1.88-7.85-2.07-13.23-.59-17.45h0c1.93-5.52,6-12.34,14.43-13.49L93.4,59c7.64-1,14.24-2,21.7.31,6.73,2,14.67,7.1,14.28,19.66C129,91.09,120.83,108.22,103.84,108.22Zm1.39-49.44a87.17,87.17,0,0,0-11.7,1.08l-.77.1c-8,1.09-11.84,7.61-13.69,12.89h0c-1.41,4-1.22,9.26.62,16.93,2.63,11,14.32,17.51,24.11,17.53h0c16.39,0,24.27-16.61,24.63-28.42.3-9.62-4.29-15.93-13.63-18.75A32.57,32.57,0,0,0,105.23,58.78Z"/><path d="M102.13,101.21h0c-10.76,0-18.38-7.56-20.08-14.65-1.51-6.29-1.66-10.61-.47-14h0c1.56-4.44,4.83-9.93,11.62-10.86l.61-.08c6.12-.84,11.41-1.56,17.4.25,5.41,1.63,11.8,5.71,11.49,15.81C122.36,87.46,115.79,101.21,102.13,101.21Zm1.12-39.55a69.44,69.44,0,0,0-9.36.86l-.61.09c-6.33.86-9.41,6-10.88,10.25h0c-1.12,3.21-1,7.37.5,13.49,2.09,8.71,11.4,13.94,19.2,14h0c13.05,0,19.33-13.24,19.62-22.65C122,70,118.33,65,110.9,62.74A26.12,26.12,0,0,0,103.25,61.66Z"/><path d="M100.42,94.21h0c-8.13,0-13.88-5.72-15.17-11.08-1.14-4.74-1.24-8-.35-10.57,1.18-3.36,3.66-7.51,8.81-8.21l.45-.07c4.61-.63,8.59-1.17,13.1.19,4.1,1.24,8.94,4.32,8.7,12C115.71,83.83,110.74,94.21,100.42,94.21Zm.84-29.67a51.36,51.36,0,0,0-7,.65l-.46.06c-4.69.64-7,4.49-8.07,7.61h0c-.56,1.61-1,4.21.38,10.06C87.33,88,93,93.28,100.4,93.29h0c9.71,0,14.38-9.86,14.6-16.87.17-5.68-2.54-9.41-8-11.07A19.12,19.12,0,0,0,101.26,64.54Z"/><path d="M98.71,87.2h0a10.53,10.53,0,0,1-10.27-7.5c-.76-3.19-.83-5.39-.23-7.13,1.13-3.23,3.26-5.21,6-5.58l.3,0c3-.41,5.75-.79,8.8.13,2.78.84,6.07,2.93,5.91,8.13C109.05,80.19,105.7,87.2,98.71,87.2Zm.56-19.78a35.27,35.27,0,0,0-4.65.43l-.3,0c-3,.42-4.54,2.94-5.25,5h0c-.37,1-.68,2.75.25,6.62.8,3.33,4.53,6.79,9.38,6.8h0c6.38,0,9.44-6.49,9.58-11.11.12-3.7-1.65-6.14-5.26-7.23A12.74,12.74,0,0,0,99.27,67.42Z"/><path d="M97,80.19h0a5.49,5.49,0,0,1-5.36-3.92,6.6,6.6,0,0,1-.1-3.7l.43.15-.43-.15a4,4,0,0,1,3.18-2.94l.15,0a10,10,0,0,1,4.49.08A4,4,0,0,1,102.48,74C102.4,76.56,100.65,80.19,97,80.19Zm.27-9.89a17.33,17.33,0,0,0-2.29.22l-.15,0a3.15,3.15,0,0,0-2.44,2.33h0a5.38,5.38,0,0,0,.13,3.18A4.63,4.63,0,0,0,97,79.28h0c3,0,4.49-3.12,4.56-5.33a3.15,3.15,0,0,0-2.47-3.39A6.11,6.11,0,0,0,97.28,70.3Z"/><polygon points="95.3 72.73 95.3 72.73 95.3 72.73 95.3 72.73 95.3 72.73 95.3 72.73 95.3 72.73"/><path d="M73.17,124.12c2.88,10.25,15.94,7.33,20.4-8S92,95.43,99.62,89.06s15-1.91,22.63-14,6.38-32.19-8-33.46-18.81,1-20.4,3.18-4.09,10-5.71,19.53S84,91.61,81.78,97,70.3,113.92,73.17,124.12Z"/><path d="M62.86,49.8C57.66,61.38,46.65,64.53,39,61.1S30.12,45.8,34.6,33.92C39.79,20.15,51.06,18,58.7,21.41S68.06,38.21,62.86,49.8Z"/><path d="M168.39,202.65q-6.64,9.18-21.29,9.18t-21.47-9.21q-6.82-9.23-6.83-27.8V116.63q0-35,28.55-35,14.76,0,21.22,8.89t6.47,26.1v58.19Q175,193.48,168.39,202.65Zm-28.37-12q1.69,4.41,7,4.41c3.52,0,5.83-1.5,6.94-4.52s1.66-8.18,1.66-15.5V115.76q0-9-1.69-13.19c-1.14-2.77-3.35-4.16-6.65-4.16a7.05,7.05,0,0,0-6.94,4.16q-2,4.16-2,13.12V175Q138.32,186.25,140,190.65Z"/><path d="M183.76,174.6V163.25h18.36v12.8q0,10.63,1.81,14.93t6.8,4.3c3.32,0,5.53-1.18,6.61-3.54s1.63-6.22,1.63-11.57a31.86,31.86,0,0,0-2.89-14,49.92,49.92,0,0,0-9.18-12.47L197.5,144a57.55,57.55,0,0,1-10.23-14.25,37.87,37.87,0,0,1-3.65-17.06q0-15.75,6.07-23.42t20.89-7.66q14.82,0,20.06,8.93t5.24,26.06v7.88H218V115.4q0-9.25-1.59-13.27a6,6,0,0,0-6.11-4q-4.52,0-6.51,3c-1.32,2-2,5.06-2,9.11s.68,7.27,2,9.68a52.29,52.29,0,0,0,7.3,9.26l10.48,11.35a66.57,66.57,0,0,1,11.89,17.27,45.17,45.17,0,0,1,4,19.09q0,17.85-6,26.38t-21,8.53q-15,0-20.9-9.5T183.76,174.6Z"/><path d="M246.45,210.39V83.16h29.21q14.82,0,20.28,9T301.68,119v2.68q0,18.93-5.38,28.73t-20,9.8H265.83v50.17Zm19.38-66.15h6.65q6.13,0,8-4.73t1.84-18V119q-.07-11.28-2-16.12t-7.7-4.84h-6.79Z"/><path d="M358.49,202.65q-6.66,9.18-21.29,9.18t-21.47-9.21q-6.84-9.23-6.84-27.8V116.63q0-35,28.56-35,14.74,0,21.22,8.89t6.47,26.1v58.19Q365.14,193.48,358.49,202.65Zm-28.38-12q1.69,4.41,7,4.41c3.51,0,5.83-1.5,6.94-4.52s1.66-8.18,1.66-15.5V115.76q0-9-1.7-13.19t-6.65-4.16a7.07,7.07,0,0,0-6.94,4.16q-2,4.16-2,13.12V175Q328.41,186.25,330.11,190.65Z"/><path d="M65.31,72.69c2.55-7.27,6.86-14.75,13.76-19.39.16-10.43.75-19.73,5-20,4.46-.32,12.44,1.35,17.86-4.38s2.83-18.78-8-26c-9.69-6.43-20.62-3.12-21,20.4C72.53,38.74,68.27,51,61.45,60.57S47,69.18,41.25,68.22s-19.76-11-29.64-5.66C2.93,67.25-5.92,84.48,5.23,96S41,109.79,53.36,103.6c3.92-2,7.64-5.75,11-10.43C62.93,83.61,63.63,77.5,65.31,72.69Z"/></svg>