<svg xmlns="http://www.w3.org/2000/svg" viewBox="0 0 435.98 257.72"><defs><style>.a{fill:#ff965c;}.b{fill:#46a3ff;}.c{fill:#ff5b40;}.d{fill:#ffc924;}.e{fill:#224374;}</style></defs><path class="a" d="M13.69,73.81C3.46,79.34-7,99.67,6.17,113.2s42.24,16.32,56.78,9c16.52-8.28,30.15-44,30.31-57.16s.62-25.44,5.88-25.82,14.68,1.6,21.07-5.17,3.34-22.15-9.5-30.68C99.28-4.19,86.39-.28,85.89,27.47c-.32,18.24-5.34,32.71-13.39,44s-17.07,10.16-23.83,9S25.35,67.51,13.69,73.81Z"/><path class="b" d="M77.06,85.75c4.41-12.6,13.31-25.76,29.86-28s31.12-4.49,47.29.39,30.39,16.34,29.64,40.78-17,61.36-53.37,61.3c-27.17-.05-47.63-19.16-52.14-38S74.42,93.27,77.06,85.75Z"/><path class="c" d="M75.55,144.41c3.4,12.1,18.8,8.65,24.07-9.4s-1.88-24.44,7.14-32,17.68-2.26,26.7-16.54,7.52-38-9.4-39.49S101.87,48.15,100,50.78s-4.82,11.85-6.73,23-4.92,32.25-7.56,38.64S72.17,132.38,75.55,144.41Z"/><path class="d" d="M74.17,58.75C68,72.41,55,76.13,46,72.09S35.54,54,40.82,40c6.12-16.24,19.43-18.8,28.44-14.76S80.3,45.08,74.17,58.75Z"/><path class="e" d="M198.67,239.09q-7.86,10.83-25.12,10.83t-25.33-10.87q-8.07-10.87-8.06-32.8V137.6q0-41.28,33.69-41.28,17.4,0,25,10.49t7.63,30.79v68.65Q206.51,228.26,198.67,239.09Zm-33.48-14.16q2,5.2,8.23,5.2t8.19-5.33q1.95-5.33,2-18.29V136.57q0-10.65-2-15.56t-7.85-4.91q-5.85,0-8.19,4.91t-2.34,15.48v70Q163.19,219.73,165.19,224.93Z"/><path class="e" d="M216.8,206V192.61h21.66V207.7q0,12.54,2.14,17.62t8,5.07q5.89,0,7.81-4.18t1.92-13.65a37.48,37.48,0,0,0-3.41-16.5,58.74,58.74,0,0,0-10.84-14.71L233,169.92a67.93,67.93,0,0,1-12.07-16.8A44.84,44.84,0,0,1,216.63,133q0-18.59,7.16-27.63t24.65-9q17.49,0,23.67,10.53t6.18,30.75v9.29H257.23V136.15q0-10.92-1.88-15.65t-7.21-4.74c-3.55,0-6.11,1.2-7.67,3.58s-2.35,6-2.35,10.75.8,8.59,2.39,11.43a61.61,61.61,0,0,0,8.62,10.92l12.36,13.39a78.53,78.53,0,0,1,14,20.38,53.31,53.31,0,0,1,4.74,22.52q0,21.06-7.08,31.13T248.4,249.92q-17.7,0-24.65-11.21T216.8,206Z"/><path class="e" d="M290.76,248.22V98.11h34.46q17.47,0,23.92,10.62t6.78,31.68v3.16q0,22.34-6.35,33.9T326,189H313.62v59.2Zm22.86-78h7.85q7.25,0,9.42-5.59t2.18-21.28v-2.9q-.09-13.31-2.35-19t-9.08-5.71h-8Z"/><path class="e" d="M422.94,239.09q-7.85,10.83-25.12,10.83t-25.33-10.87q-8.06-10.87-8.06-32.8V137.6q0-41.28,33.69-41.28,17.4,0,25,10.49t7.64,30.79v68.65Q430.79,228.26,422.94,239.09Zm-33.48-14.16q2,5.2,8.23,5.2t8.19-5.33q2-5.33,2-18.29V136.57q0-10.65-2-15.56T398,116.1q-5.83,0-8.19,4.91t-2.34,15.48v70Q387.46,219.73,389.46,224.93Z"/></svg>