<svg xmlns="http://www.w3.org/2000/svg" viewBox="0 0 273.33 238.14"><defs><style>.a{fill:#ee8764;}.b{fill:#46a3ff;}.c{fill:#ff5b40;}.d{fill:#ffc924;}</style></defs><path class="a" d="M20.36,109.72c-15.21,8.22-30.75,38.43-11.18,58.55S72,192.53,93.58,181.69c24.54-12.31,44.81-65.4,45-85s.92-37.82,8.75-38.38,21.82,2.37,31.32-7.69,5-32.93-14.12-45.6c-17-11.29-36.16-5.47-36.89,35.77-.49,27.11-8,48.63-19.9,65.4S82.4,121.32,72.34,119.64,37.68,100.36,20.36,109.72Z"/><path class="b" d="M114.54,127.47c6.56-18.73,19.79-38.29,44.39-41.65s46.26-6.67,70.29.59S274.4,110.7,273.29,147,248,238.24,194,238.14c-40.38-.07-70.79-28.47-77.5-56.42S110.63,138.65,114.54,127.47Z"/><path class="c" d="M112.31,214.67c5,18,27.94,12.85,35.77-14s-2.8-36.33,10.62-47.51,26.27-3.35,39.69-24.59,11.18-56.46-14-58.69-33,1.67-35.77,5.59-7.17,17.6-10,34.23-7.31,47.93-11.22,57.44S107.27,196.78,112.31,214.67Z"/><path class="d" d="M110.25,87.33c-9.12,20.31-28.44,25.84-41.83,19.83S52.83,80.33,60.68,59.49C69.78,35.34,89.55,31.54,103,37.55S119.37,67,110.25,87.33Z"/></svg>