<svg xmlns="http://www.w3.org/2000/svg" viewBox="0 0 381.49 221.32"><defs><style>.a{fill:#ee8764;}.b{fill:#46a3ff;}.c{fill:#ff5b40;}.d{fill:#ffc924;}.e{fill:#fff;}</style></defs><path class="a" d="M12.13,65.37C3.07,70.26-6.19,88.26,5.47,100.25s37.4,14.45,50.28,8c14.62-7.33,26.7-39,26.84-50.61s.54-22.53,5.21-22.87,13,1.42,18.66-4.58S109.41,10.56,98,3C87.92-3.71,76.5-.25,76.06,24.33c-.28,16.15-4.73,29-11.85,39s-15.12,9-21.11,8S22.45,59.79,12.13,65.37Z"/><path class="b" d="M68.24,75.94C72.15,64.78,80,53.13,94.68,51.13s27.56-4,41.88.35S163.48,66,162.81,87.6s-15.05,54.33-47.26,54.28c-24.06,0-42.18-17-46.17-33.62S65.91,82.6,68.24,75.94Z"/><path class="c" d="M66.91,127.89c3,10.71,16.65,7.66,21.31-8.32s-1.67-21.65,6.33-28.31,15.65-2,23.64-14.65,6.66-33.64-8.33-35-19.64,1-21.31,3.33-4.27,10.49-6,20.4S78.23,93.92,75.9,99.58,63.91,117.23,66.91,127.89Z"/><path class="d" d="M65.68,52c-5.43,12.1-16.94,15.39-24.92,11.81s-9.29-16-4.61-28.4c5.42-14.38,17.2-16.65,25.18-13.07S71.11,39.93,65.68,52Z"/><path class="e" d="M175.93,211.73q-6.94,9.6-22.24,9.59t-22.43-9.63q-7.14-9.63-7.14-29v-60.8q0-36.55,29.83-36.55,15.42,0,22.17,9.29t6.76,27.26v60.8Q182.88,202.14,175.93,211.73Zm-29.64-12.54c1.18,3.08,3.61,4.61,7.29,4.61s6.09-1.57,7.25-4.72,1.74-8.55,1.74-16.2V121q0-9.45-1.78-13.79t-6.95-4.34q-5.18,0-7.25,4.34t-2.08,13.71v62Q144.51,194.58,146.29,199.19Z"/><path class="e" d="M192,182.43V170.57h19.19v13.37q0,11.1,1.89,15.59t7.1,4.5c3.47,0,5.77-1.24,6.91-3.7s1.7-6.5,1.7-12.09a33.17,33.17,0,0,0-3-14.61,52,52,0,0,0-9.6-13l-9.82-10.12a60.53,60.53,0,0,1-10.68-14.88,39.62,39.62,0,0,1-3.82-17.83q0-16.45,6.35-24.47t21.83-8q15.48,0,20.95,9.32t5.48,27.23v8.23H227.79v-9.51q0-9.67-1.66-13.86a6.26,6.26,0,0,0-6.38-4.19c-3.15,0-5.41,1-6.8,3.17s-2.07,5.29-2.07,9.51.7,7.61,2.11,10.13a54.54,54.54,0,0,0,7.63,9.66l10.95,11.86A69.87,69.87,0,0,1,244,164.9a47.35,47.35,0,0,1,4.19,19.94q0,18.66-6.27,27.57T220,221.32q-15.67,0-21.83-9.93T192,182.43Z"/><path class="e" d="M257.49,219.81V86.88H288q15.48,0,21.18,9.4t6,28.06v2.8q0,19.79-5.63,30T288.69,167.4h-11v52.41Zm20.24-69.11h6.95q6.42,0,8.35-4.94T295,126.91v-2.57q-.09-11.78-2.08-16.84t-8.05-5.06h-7.1Z"/><path class="e" d="M374.54,211.73q-6.94,9.6-22.24,9.59t-22.43-9.63q-7.14-9.63-7.14-29v-60.8q0-36.55,29.84-36.55,15.4,0,22.16,9.29t6.76,27.26v60.8Q381.49,202.14,374.54,211.73ZM344.9,199.19c1.18,3.08,3.61,4.61,7.29,4.61s6.09-1.57,7.25-4.72,1.74-8.55,1.74-16.2V121q0-9.45-1.78-13.79t-6.95-4.34c-3.45,0-5.86,1.45-7.25,4.34s-2.08,7.47-2.08,13.71v62Q343.12,194.58,344.9,199.19Z"/></svg>