<svg xmlns="http://www.w3.org/2000/svg" viewBox="0 0 296.63 156.78"><defs><style>.a{fill:#fff;}</style></defs><path class="a" d="M59.72,145.72q-8,11.06-25.64,11.06T8.23,145.68Q0,134.58,0,112.21V42.13Q0,0,34.38,0,52.14,0,59.93,10.71t7.79,31.42v70.08Q67.72,134.67,59.72,145.72ZM25.55,131.27q2,5.31,8.4,5.31t8.36-5.44q2-5.44,2-18.67V41.09q0-10.89-2.05-15.89t-8-5q-6,0-8.35,5T23.5,41v71.47Q23.5,126,25.55,131.27Z"/><path class="a" d="M78.23,112V98.28h22.11v15.41q0,12.8,2.17,18t8.18,5.18q6,0,8-4.26t2-13.93a38.27,38.27,0,0,0-3.48-16.85,60.07,60.07,0,0,0-11.06-15L94.76,75.12A69.46,69.46,0,0,1,82.45,58a45.69,45.69,0,0,1-4.4-20.54q0-19,7.31-28.2T110.52,0q17.85,0,24.16,10.75T141,42.13v9.49h-21.5v-11q0-11.14-1.92-16t-7.35-4.83q-5.44,0-7.84,3.65t-2.39,11c0,4.88.81,8.76,2.44,11.67s4.55,6.61,8.79,11.14L123.84,71a80.37,80.37,0,0,1,14.32,20.8,54.45,54.45,0,0,1,4.83,23q0,21.51-7.22,31.77t-25.29,10.28q-18.08,0-25.16-11.45T78.23,112Z"/><path class="a" d="M153.71,155V1.83h35.17q17.85,0,24.42,10.84T220.22,45v3.23q0,22.8-6.49,34.6T189.67,94.62H177V155ZM177,75.38h8q7.39,0,9.62-5.7T196.89,48V45q-.09-13.57-2.39-19.41t-9.27-5.83H177Z"/><path class="a" d="M288.62,145.72q-8,11.06-25.64,11.06t-25.85-11.1q-8.22-11.1-8.23-33.47V42.13Q228.9,0,263.29,0,281,0,288.84,10.71t7.79,31.42v70.08Q296.63,134.67,288.62,145.72Zm-34.17-14.45q2,5.31,8.4,5.31t8.36-5.44q2-5.44,2-18.67V41.09q0-10.89-2-15.89t-8-5q-6,0-8.36,5T252.41,41v71.47Q252.41,126,254.45,131.27Z"/></svg>