<svg xmlns="http://www.w3.org/2000/svg" viewBox="0 0 251.43 219.16"><defs><style>.a{fill:#ff965c;}</style></defs><path class="a" d="M178,219.16h-.13c-38.49-.07-65.71-27-71.79-52.32-5.42-22.61-6-38.09-1.73-50.17,5.54-15.83,17.21-35.4,41.31-38.68l2.19-.3c22.06-3,41.11-5.63,62.59.87,19.29,5.83,42,20.33,40.94,56.32C250.31,169.89,226.83,219.16,178,219.16Zm-73-102.25.7.25c-4.13,11.8-3.59,27,1.77,49.34,5.94,24.76,32.63,51.12,70.37,51.19H178c47.85,0,70.85-48.43,71.91-82.86C251,99.77,228.82,85.64,210,80c-21.18-6.4-40.08-3.81-62-.82l-2.2.3c-23.36,3.19-34.71,22.27-40.11,37.72Z"/><path class="a" d="M175.27,207.88h-.12c-34.25-.06-58.49-24-63.89-46.56-4.83-20.12-5.3-33.89-1.54-44.64,4.93-14.1,15.32-31.51,36.78-34.44l2-.27c19.62-2.68,36.56-5,55.66.78,17.17,5.19,37.44,18.1,36.45,50.14C239.61,164.05,218.71,207.88,175.27,207.88Zm-64.86-91,.7.24c-3.67,10.48-3.18,24,1.58,43.82,5.27,22,29,45.37,62.46,45.44h.12c42.47,0,62.89-43,63.83-73.57,1-31.11-18.72-43.66-35.4-48.7-18.8-5.68-35.59-3.38-55-.72l-2,.26c-20.73,2.83-30.8,19.77-35.59,33.47Z"/><path class="a" d="M172.52,196.61h-.1c-30-.05-51.26-21.07-56-40.81-4.23-17.62-4.64-29.68-1.34-39.11,4.32-12.36,13.43-27.63,32.26-30.2l1.71-.23c17.18-2.35,32-4.38,48.75.68,15,4.55,32.81,15.87,31.95,44C228.91,158.21,210.6,196.61,172.52,196.61Zm3.14-111.34c-8.55,0-17.14,1.17-26.41,2.44l-1.71.24c-18.09,2.46-26.88,17.25-31.07,29.22h0c-3.21,9.15-2.78,21,1.38,38.29,6,24.79,32.42,39.65,54.57,39.69h.1c37.1,0,54.94-37.58,55.76-64.29.84-27.16-16.35-38.11-30.91-42.52A73.87,73.87,0,0,0,175.66,85.27Z"/><path class="a" d="M169.77,185.34h-.09c-25.78,0-44-18.1-48.09-35.06-3.63-15.13-4-25.48-1.15-33.59C124.16,106.07,132,93,148.17,90.74l1.48-.2c14.73-2,27.45-3.75,41.82.59,12.94,3.91,28.2,13.64,27.46,37.79C218.21,152.36,202.48,185.34,169.77,185.34Zm2.69-95.44c-7.32,0-14.67,1-22.62,2.1l-1.47.2c-15.45,2.11-23,14.75-26.55,25h0c-2.73,7.82-2.37,17.92,1.2,32.76,5.08,21.2,27.72,33.9,46.67,33.93h.08c31.73,0,47-32.14,47.69-55,.72-23.21-14-32.57-26.42-36.34A63,63,0,0,0,172.46,89.9Z"/><path class="a" d="M167,174.07H167c-21.55,0-36.8-15.13-40.2-29.31-3-12.63-3.32-21.28-1-28.06h0c3.11-8.88,9.66-19.86,23.21-21.7l1.23-.17c12.29-1.68,22.9-3.14,34.9.49,10.82,3.27,23.59,11.42,23,31.62C207.51,146.52,194.36,174.07,167,174.07Zm2.25-79.53a140.44,140.44,0,0,0-18.83,1.74l-1.23.17c-12.82,1.75-19.05,12.24-22,20.74h0c-2.27,6.49-2,14.89,1,27.22,4.22,17.61,23,28.16,38.77,28.19H167c26.36,0,39-26.72,39.62-45.71.48-15.47-6.9-25.62-21.93-30.16A52.22,52.22,0,0,0,169.27,94.54Z"/><path class="a" d="M164.28,162.8h-.06c-17.32,0-29.57-12.16-32.31-23.56-2.43-10.13-2.66-17.08-.75-22.53h0c2.5-7.15,7.77-16,18.68-17.46l1-.14c9.85-1.35,18.36-2.51,28,.4,8.71,2.63,19,9.19,18.48,25.44C196.81,140.68,186.25,162.8,164.28,162.8Zm1.79-63.63a110.76,110.76,0,0,0-15,1.4l-1,.13c-10.18,1.39-15.13,9.74-17.5,16.49h0c-1.8,5.17-1.56,11.86.8,21.7,3.37,14,18.34,22.42,30.88,22.44h.06c21,0,31.08-21.29,31.55-36.43.37-12.3-5.49-20.37-17.44-24A41.82,41.82,0,0,0,166.07,99.17Z"/><path class="a" d="M161.53,151.53h-.05c-13.08,0-22.33-9.2-24.4-17.81-1.83-7.64-2-12.88-.56-17,1.89-5.41,5.88-12.09,14.16-13.22l.73-.1c7.41-1,13.81-1.89,21.07.3,6.59,2,14.37,7,14,19.26C186.11,134.83,178.13,151.53,161.53,151.53Zm1.34-47.72a83.9,83.9,0,0,0-11.26,1l-.73.1c-7.54,1-11.22,7.23-13,12.25h0c-.9,2.59-1.65,6.76.61,16.17,2,8.19,11.1,16.67,23,16.69h0c15.62,0,23.13-15.86,23.48-27.14.28-9.14-4.08-15.13-12.95-17.81A31.34,31.34,0,0,0,162.87,103.81Z"/><path class="a" d="M158.78,140.26h0c-8.84,0-15.11-6.23-16.51-12.06-1.23-5.14-1.34-8.68-.36-11.48,1.81-5.18,5.23-8.37,9.63-9l.49-.07c4.76-.65,9.26-1.26,14.15.22,4.48,1.35,9.76,4.72,9.51,13.08C175.41,129,170,140.26,158.78,140.26Zm.89-31.81a55.49,55.49,0,0,0-7.47.69l-.49.07c-4.9.66-7.3,4.72-8.45,8h0c-.59,1.69-1.08,4.43.41,10.64,1.29,5.37,7.28,10.93,15.08,10.94h0c10.25,0,15.18-10.44,15.41-17.86.18-6-2.66-9.88-8.46-11.63A20.48,20.48,0,0,0,159.67,108.45Z"/><path class="a" d="M156,129h0a8.84,8.84,0,0,1-8.61-6.31c-.64-2.65-.69-4.48-.18-6l.7.24-.7-.24c1-2.73,2.78-4.41,5.12-4.73l.25,0c2.41-.33,4.71-.65,7.23.12a6.47,6.47,0,0,1,5,6.9C164.71,123.15,161.89,129,156,129Zm.45-15.91a28.45,28.45,0,0,0-3.68.34l-.25,0c-2.27.31-3.39,2.21-3.93,3.76h0c-.28.79-.51,2.1.22,5.11a7.43,7.43,0,0,0,7.18,5.19h0c4.88,0,7.23-5,7.34-8.57a5.07,5.07,0,0,0-4-5.46A10,10,0,0,0,156.48,113.08Z"/><polygon class="a" points="153.28 116.98 153.28 116.98 153.28 116.98 153.28 116.98 153.28 116.98 153.28 116.98 153.28 116.98"/><path class="a" d="M117.69,199.64c4.64,16.5,25.64,11.79,32.81-12.81s-2.56-33.33,9.74-43.58,24.1-3.08,36.4-22.56,10.26-51.78-12.81-53.83S153.58,68.4,151,72s-6.58,16.14-9.19,31.4-6.71,44-10.3,52.68S113.08,183.24,117.69,199.64Z"/><path class="a" d="M101.12,80.09C92.75,98.72,75,103.8,62.75,98.28s-14.3-24.6-7.1-43.71C64,32.42,82.14,28.93,94.42,34.44S109.48,61.47,101.12,80.09Z"/><path class="a" d="M105.06,116.91c4.08-11.68,11-23.71,22.13-31.18.26-16.77,1.2-31.73,8-32.21,7.18-.52,20,2.17,28.73-7.06s4.56-30.2-12.95-41.82c-15.59-10.35-33.16-5-33.84,32.81-.44,24.86-7.28,44.6-18.25,60s-23.27,13.84-32.5,12.31-31.79-17.69-47.68-9.11c-14,7.54-28.2,35.25-10.25,53.71S66,176.59,85.83,166.64c6.3-3.16,12.29-9.25,17.66-16.77C101.22,134.48,102.34,124.66,105.06,116.91Z"/></svg>