<?xml version="1.0" encoding="UTF-8"?>
<svg id="Layer_1" data-name="Layer 1" xmlns="http://www.w3.org/2000/svg" viewBox="0 0 1363.73 361.91">
  <defs>
    <style>
      .cls-1 {
        fill: none;
        isolation: isolate;
      }

      .cls-2 {
        fill: #005681;
      }

      .cls-3 {
        fill: #00a290;
      }

      .cls-4 {
        fill: #eb8723;
      }

      .cls-5 {
        fill: #fdd00c;
      }

      .cls-6 {
        fill: #2095d2;
      }
    </style>
  </defs>
  <g>
    <path class="cls-3" d="m19.83,106.89c-14.82,8.01-29.95,37.44-10.89,57.04,19.06,19.6,61.17,23.63,82.22,13.07,23.91-11.99,43.66-63.71,43.88-82.77.23-19.06.89-36.84,8.52-37.39s21.26,2.31,30.51-7.49c9.26-9.8,4.84-32.08-13.76-44.42-16.56-10.99-35.22-5.33-35.94,34.85-.47,26.41-7.74,47.37-19.39,63.71-11.65,16.34-24.72,14.7-34.52,13.07-9.8-1.63-33.76-18.79-50.64-9.67Z"/>
    <path class="cls-6" d="m111.58,124.18c6.39-18.25,19.28-37.3,43.24-40.57,23.96-3.27,45.06-6.5,68.48.58,23.41,7.08,44.01,23.66,42.93,59.05-1.09,35.39-24.61,88.85-77.29,88.76-39.33-.07-68.96-27.74-75.49-54.97-6.53-27.23-5.67-41.96-1.86-52.85Z"/>
    <path class="cls-4" d="m109.4,209.12c4.93,17.52,27.23,12.52,34.85-13.61,7.62-26.14-2.72-35.39,10.35-46.28,13.07-10.89,25.59-3.27,38.66-23.96,13.07-20.69,10.89-55-13.61-57.18-24.5-2.18-32.13,1.63-34.85,5.45s-6.99,17.15-9.75,33.35c-2.77,16.2-7.13,46.69-10.94,55.95-3.81,9.26-19.6,28.86-14.7,46.28Z"/>
    <path class="cls-5" d="m107.4,85.07c-8.88,19.79-27.7,25.18-40.75,19.32-13.05-5.86-15.19-26.14-7.54-46.43,8.87-23.53,28.13-27.23,41.18-21.37,13.05,5.86,16,28.7,7.11,48.49Z"/>
    <path class="cls-2" d="m287.68,346.22c-7.58,10.46-19.7,15.69-36.37,15.69s-28.9-5.25-36.68-15.75c-7.78-10.5-11.67-26.33-11.67-47.49v-99.42c0-39.85,16.26-59.78,48.79-59.78,16.8,0,28.88,5.06,36.25,15.19,7.37,10.13,11.05,24.99,11.05,44.59v99.42c0,21.24-3.79,37.09-11.36,47.55Zm-48.48-20.5c1.93,5.02,5.91,7.53,11.92,7.53s9.96-2.57,11.86-7.72c1.89-5.15,2.84-13.98,2.84-26.49v-101.27c0-10.29-.97-17.8-2.9-22.54-1.94-4.73-5.72-7.1-11.36-7.1s-9.59,2.37-11.86,7.1c-2.27,4.74-3.4,12.21-3.4,22.42v101.4c0,12.76.97,21.66,2.9,26.68Z"/>
    <path class="cls-2" d="m313.95,298.3v-19.39h31.37v21.86c0,12.1,1.03,20.61,3.09,25.5,2.06,4.9,5.93,7.35,11.61,7.35s9.45-2.02,11.3-6.05c1.85-4.03,2.78-10.62,2.78-19.76s-1.65-17.11-4.94-23.9c-3.3-6.79-8.52-13.89-15.69-21.3l-16.06-16.55c-7.49-7.82-13.32-15.93-17.48-24.33-4.16-8.4-6.24-18.11-6.24-29.15,0-17.95,3.46-31.29,10.37-40.02,6.92-8.73,18.81-13.09,35.69-13.09s28.3,5.08,34.27,15.25c5.97,10.17,8.95,25.01,8.95,44.52v13.46h-30.51v-15.56c0-10.54-.91-18.09-2.72-22.66-1.81-4.57-5.29-6.85-10.44-6.85s-8.85,1.73-11.12,5.19c-2.27,3.46-3.4,8.65-3.4,15.56s1.15,12.43,3.46,16.55c2.3,4.12,6.46,9.39,12.47,15.81l17.91,19.39c8.97,9.72,15.75,19.56,20.32,29.52,4.57,9.96,6.85,20.83,6.85,32.61,0,20.34-3.42,35.36-10.25,45.08-6.84,9.72-18.79,14.57-35.88,14.57s-28.98-5.41-35.69-16.24c-6.71-10.83-10.07-26.62-10.07-47.36Z"/>
    <path class="cls-2" d="m421.05,359.44v-217.37h49.9c16.88,0,28.42,5.13,34.64,15.38,6.21,10.25,9.49,25.55,9.82,45.88v4.57c0,21.57-3.07,37.94-9.2,49.09-6.14,11.16-17.52,16.73-34.15,16.73h-17.91v85.71h-33.1Zm33.1-113.01h11.36c7,0,11.55-2.7,13.65-8.09,2.1-5.39,3.15-15.66,3.15-30.81v-4.2c-.08-12.84-1.22-22.02-3.4-27.54-2.18-5.52-6.57-8.27-13.15-8.27h-11.61v78.92Z"/>
    <path class="cls-2" d="m612.45,346.22c-7.58,10.46-19.7,15.69-36.37,15.69s-28.9-5.25-36.68-15.75c-7.78-10.5-11.67-26.33-11.67-47.49v-99.42c0-39.85,16.26-59.78,48.78-59.78,16.8,0,28.88,5.06,36.25,15.19,7.37,10.13,11.05,24.99,11.05,44.59v99.42c0,21.24-3.79,37.09-11.36,47.55Zm-48.48-20.5c1.93,5.02,5.91,7.53,11.92,7.53s9.96-2.57,11.86-7.72c1.89-5.15,2.84-13.98,2.84-26.49v-101.27c0-10.29-.97-17.8-2.9-22.54-1.94-4.73-5.72-7.1-11.36-7.1s-9.59,2.37-11.86,7.1c-2.27,4.74-3.4,12.21-3.4,22.42v101.4c0,12.76.97,21.66,2.9,26.68Z"/>
  </g>
  <g class="cls-1">
    <path class="cls-2" d="m331.12,123.59c-2.47,0-4.62-.6-6.45-1.81-1.83-1.21-3.25-2.83-4.26-4.87-1.01-2.04-1.51-4.3-1.51-6.79v-18h4.59v18c0,1.62.3,3.1.89,4.45s1.46,2.42,2.6,3.22c1.14.8,2.52,1.2,4.14,1.2s3.06-.4,4.19-1.2c1.13-.8,1.99-1.88,2.57-3.22s.87-2.83.87-4.45v-18h4.59v18c0,1.87-.29,3.62-.86,5.24-.57,1.63-1.4,3.06-2.47,4.29-1.07,1.24-2.36,2.2-3.86,2.89s-3.18,1.04-5.03,1.04Z"/>
    <path class="cls-2" d="m348.64,123.01v-30.89h4.96l14.19,22.59v-22.59h4.59v30.89h-4.96l-14.19-22.59v22.59h-4.59Z"/>
    <path class="cls-2" d="m378.34,123.01v-30.89h4.59v30.89h-4.59Z"/>
    <path class="cls-2" d="m398.99,123.01l-11.21-30.89h4.85l9.22,25.44,9.27-25.44h4.85l-11.21,30.89h-5.78Z"/>
    <path class="cls-2" d="m420.17,123.01v-30.89h19.17v4.59h-14.58v7.46h11.74v4.59h-11.74v9.67h14.58v4.59h-19.17Z"/>
    <path class="cls-2" d="m444.2,123.01v-30.89h11.36c1.68,0,3.18.41,4.52,1.24,1.34.82,2.4,1.93,3.19,3.32.79,1.39,1.18,2.94,1.18,4.64,0,1.44-.27,2.76-.81,3.95-.54,1.19-1.29,2.21-2.25,3.04-.96.84-2.06,1.44-3.3,1.81l7.46,12.89h-5.32l-7.24-12.47h-4.21v12.47h-4.59Zm4.59-17.06h6.29c.88,0,1.69-.22,2.42-.66.73-.44,1.31-1.03,1.73-1.76.43-.74.64-1.57.64-2.49s-.21-1.76-.64-2.5c-.43-.74-1-1.33-1.73-1.76-.73-.43-1.53-.65-2.42-.65h-6.29v9.84Z"/>
    <path class="cls-2" d="m481.22,123.59c-1.69,0-3.32-.26-4.88-.79-1.56-.53-2.92-1.29-4.08-2.28s-1.99-2.17-2.49-3.54l4.3-1.61c.25.71.73,1.33,1.44,1.89s1.57.98,2.56,1.29c.99.31,2.04.46,3.14.46,1.18,0,2.28-.19,3.32-.57,1.04-.38,1.88-.91,2.52-1.59.64-.68.96-1.47.96-2.38s-.33-1.71-1-2.32c-.67-.6-1.52-1.08-2.56-1.43-1.04-.35-2.11-.62-3.23-.79-2.16-.35-4.1-.87-5.81-1.54-1.71-.68-3.07-1.62-4.06-2.85-.99-1.22-1.49-2.81-1.49-4.77,0-1.84.53-3.44,1.58-4.81,1.05-1.37,2.44-2.43,4.17-3.19,1.73-.76,3.6-1.14,5.62-1.14,1.66,0,3.27.26,4.82.78,1.55.52,2.92,1.28,4.1,2.27s2.03,2.2,2.55,3.61l-4.35,1.57c-.25-.72-.73-1.35-1.43-1.89s-1.56-.96-2.55-1.27c-.99-.31-2.04-.46-3.14-.46-1.18-.01-2.28.17-3.3.56-1.02.39-1.86.92-2.5,1.6-.65.68-.97,1.46-.97,2.36,0,1.1.3,1.94.9,2.52.6.57,1.42,1,2.44,1.27,1.02.27,2.17.52,3.43.74,2.03.32,3.91.86,5.64,1.61s3.12,1.75,4.17,2.99c1.05,1.24,1.58,2.77,1.58,4.58s-.53,3.42-1.58,4.8c-1.05,1.38-2.44,2.44-4.17,3.2s-3.61,1.14-5.64,1.14Z"/>
    <path class="cls-2" d="m498.21,123.01v-30.89h4.59v30.89h-4.59Z"/>
    <path class="cls-2" d="m532.13,92.12v4.59h-9.84v26.3h-4.59v-26.3h-9.82v-4.59h24.25Z"/>
    <path class="cls-2" d="m555.47,92.12h5.41l-10.55,16.95v13.94h-4.59v-13.94l-10.52-16.95h5.41l7.41,11.94,7.44-11.94Z"/>
    <path class="cls-2" d="m589.78,123.59c-2.09,0-4.05-.42-5.89-1.25s-3.46-1.98-4.85-3.45c-1.4-1.47-2.49-3.17-3.29-5.11-.79-1.93-1.19-4-1.19-6.21s.4-4.28,1.19-6.21c.79-1.93,1.89-3.64,3.29-5.11s3.02-2.62,4.85-3.45,3.8-1.25,5.89-1.25,4.08.42,5.91,1.25c1.84.83,3.46,1.98,4.85,3.45s2.49,3.17,3.28,5.11c.79,1.93,1.18,4,1.18,6.21s-.39,4.28-1.18,6.21c-.79,1.93-1.88,3.64-3.28,5.11-1.4,1.47-3.02,2.62-4.85,3.45-1.84.83-3.81,1.25-5.91,1.25Zm0-4.59c1.47,0,2.85-.3,4.13-.9,1.28-.6,2.41-1.43,3.39-2.48.98-1.05,1.74-2.27,2.29-3.64.55-1.38.83-2.84.83-4.4s-.28-3.03-.83-4.41c-.55-1.38-1.32-2.6-2.29-3.65-.98-1.05-2.11-1.88-3.39-2.47-1.28-.6-2.66-.89-4.13-.89s-2.85.3-4.13.9c-1.28.6-2.41,1.43-3.39,2.48s-1.74,2.27-2.29,3.64c-.55,1.38-.83,2.84-.83,4.4s.28,3.05.83,4.42c.55,1.38,1.32,2.59,2.29,3.64s2.11,1.88,3.39,2.47c1.28.6,2.66.89,4.13.89Z"/>
    <path class="cls-2" d="m609.42,123.01v-30.89h18.2v4.59h-13.61v7.46h11.5v4.59h-11.5v14.25h-4.59Z"/>
    <path class="cls-2" d="m655.6,123.59c-2.09,0-4.05-.42-5.89-1.25-1.84-.83-3.45-1.98-4.84-3.44-1.39-1.46-2.48-3.17-3.27-5.11s-1.18-4.02-1.18-6.22.39-4.28,1.18-6.22,1.88-3.64,3.27-5.11c1.39-1.46,3-2.61,4.84-3.44,1.84-.83,3.8-1.25,5.89-1.25,2.5,0,4.8.58,6.91,1.74s3.85,2.71,5.23,4.63l-4.08,2.18c-.96-1.21-2.14-2.17-3.55-2.89-1.41-.72-2.91-1.08-4.5-1.08-1.47,0-2.85.3-4.13.9-1.28.6-2.41,1.43-3.38,2.47-.97,1.04-1.73,2.26-2.27,3.64s-.82,2.85-.82,4.41.27,3.05.82,4.42c.54,1.38,1.31,2.59,2.28,3.64.98,1.05,2.11,1.88,3.39,2.47,1.28.6,2.65.89,4.1.89,1.62,0,3.13-.36,4.53-1.09,1.41-.73,2.58-1.7,3.52-2.9l4.08,2.23c-1.38,1.93-3.13,3.47-5.23,4.62-2.1,1.16-4.41,1.73-6.91,1.73Z"/>
    <path class="cls-2" d="m682.93,92.12h5.36l11.23,30.89h-4.85l-2.14-5.87h-13.83l-2.12,5.87h-4.88l11.23-30.89Zm-2.54,20.43h10.44l-5.23-14.34-5.21,14.34Z"/>
    <path class="cls-2" d="m703.94,123.01v-30.89h4.59v26.3h13.3v4.59h-17.89Z"/>
    <path class="cls-2" d="m727.35,123.01v-30.89h4.59v30.89h-4.59Z"/>
    <path class="cls-2" d="m737.9,123.01v-30.89h18.2v4.59h-13.61v7.46h11.5v4.59h-11.5v14.25h-4.59Z"/>
    <path class="cls-2" d="m773.53,123.59c-2.09,0-4.05-.42-5.89-1.25s-3.46-1.98-4.85-3.45c-1.4-1.47-2.49-3.17-3.29-5.11-.79-1.93-1.19-4-1.19-6.21s.4-4.28,1.19-6.21c.79-1.93,1.89-3.64,3.29-5.11s3.02-2.62,4.85-3.45,3.8-1.25,5.89-1.25,4.08.42,5.91,1.25c1.84.83,3.46,1.98,4.85,3.45s2.49,3.17,3.28,5.11c.79,1.93,1.18,4,1.18,6.21s-.39,4.28-1.18,6.21c-.79,1.93-1.88,3.64-3.28,5.11-1.4,1.47-3.02,2.62-4.85,3.45-1.84.83-3.81,1.25-5.91,1.25Zm0-4.59c1.47,0,2.85-.3,4.13-.9,1.28-.6,2.41-1.43,3.39-2.48.98-1.05,1.74-2.27,2.29-3.64.55-1.38.83-2.84.83-4.4s-.28-3.03-.83-4.41c-.55-1.38-1.32-2.6-2.29-3.65-.98-1.05-2.11-1.88-3.39-2.47-1.28-.6-2.66-.89-4.13-.89s-2.85.3-4.13.9c-1.28.6-2.41,1.43-3.39,2.48s-1.74,2.27-2.29,3.64c-.55,1.38-.83,2.84-.83,4.4s.28,3.05.83,4.42c.55,1.38,1.32,2.59,2.29,3.64s2.11,1.88,3.39,2.47c1.28.6,2.66.89,4.13.89Z"/>
    <path class="cls-2" d="m793.17,123.01v-30.89h11.36c1.68,0,3.18.41,4.52,1.24,1.34.82,2.4,1.93,3.19,3.32.79,1.39,1.18,2.94,1.18,4.64,0,1.44-.27,2.76-.81,3.95-.54,1.19-1.29,2.21-2.25,3.04-.96.84-2.06,1.44-3.3,1.81l7.46,12.89h-5.32l-7.24-12.47h-4.21v12.47h-4.59Zm4.59-17.06h6.29c.88,0,1.69-.22,2.42-.66.73-.44,1.31-1.03,1.73-1.76s.64-1.57.64-2.49-.21-1.76-.64-2.5c-.43-.74-1-1.33-1.73-1.76-.73-.43-1.53-.65-2.42-.65h-6.29v9.84Z"/>
    <path class="cls-2" d="m819.18,123.01v-30.89h4.96l14.19,22.59v-22.59h4.59v30.89h-4.96l-14.19-22.59v22.59h-4.59Z"/>
    <path class="cls-2" d="m848.88,123.01v-30.89h4.59v30.89h-4.59Z"/>
    <path class="cls-2" d="m869.77,92.12h5.36l11.23,30.89h-4.85l-2.14-5.87h-13.83l-2.12,5.87h-4.88l11.23-30.89Zm-2.54,20.43h10.44l-5.23-14.34-5.21,14.34Z"/>
    <path class="cls-2" d="m901.37,123.01v-30.89h4.96l14.19,22.59v-22.59h4.59v30.89h-4.96l-14.19-22.59v22.59h-4.59Z"/>
    <path class="cls-2" d="m930.41,123.01v-30.89h19.17v4.59h-14.58v7.46h11.74v4.59h-11.74v9.67h14.58v4.59h-19.17Z"/>
    <path class="cls-2" d="m977.8,92.12v4.59h-9.84v26.3h-4.59v-26.3h-9.82v-4.59h24.25Z"/>
    <path class="cls-2" d="m989.01,123.01l-7.9-30.89h4.72l5.78,22.66,5.76-22.66h4.17l5.78,22.66,5.78-22.66h4.72l-7.85,30.89h-5.27l-5.23-20.45-5.23,20.45h-5.23Z"/>
    <path class="cls-2" d="m1036.36,123.59c-2.09,0-4.05-.42-5.89-1.25s-3.46-1.98-4.85-3.45c-1.4-1.47-2.49-3.17-3.29-5.11-.79-1.93-1.19-4-1.19-6.21s.4-4.28,1.19-6.21c.79-1.93,1.89-3.64,3.29-5.11s3.02-2.62,4.85-3.45,3.8-1.25,5.89-1.25,4.08.42,5.91,1.25c1.84.83,3.46,1.98,4.85,3.45s2.49,3.17,3.28,5.11c.79,1.93,1.18,4,1.18,6.21s-.39,4.28-1.18,6.21c-.79,1.93-1.88,3.64-3.28,5.11-1.4,1.47-3.02,2.62-4.85,3.45-1.84.83-3.81,1.25-5.91,1.25Zm0-4.59c1.47,0,2.85-.3,4.13-.9,1.28-.6,2.41-1.43,3.39-2.48.98-1.05,1.74-2.27,2.29-3.64.55-1.38.83-2.84.83-4.4s-.28-3.03-.83-4.41c-.55-1.38-1.32-2.6-2.29-3.65-.98-1.05-2.11-1.88-3.39-2.47-1.28-.6-2.66-.89-4.13-.89s-2.85.3-4.13.9c-1.28.6-2.41,1.43-3.39,2.48s-1.74,2.27-2.29,3.64c-.55,1.38-.83,2.84-.83,4.4s.28,3.05.83,4.42c.55,1.38,1.32,2.59,2.29,3.64s2.11,1.88,3.39,2.47c1.28.6,2.66.89,4.13.89Z"/>
    <path class="cls-2" d="m1056,123.01v-30.89h11.36c1.68,0,3.18.41,4.52,1.24,1.34.82,2.4,1.93,3.19,3.32.79,1.39,1.18,2.94,1.18,4.64,0,1.44-.27,2.76-.81,3.95-.54,1.19-1.29,2.21-2.25,3.04-.96.84-2.06,1.44-3.3,1.81l7.46,12.89h-5.32l-7.24-12.47h-4.21v12.47h-4.59Zm4.59-17.06h6.29c.88,0,1.69-.22,2.42-.66.73-.44,1.31-1.03,1.73-1.76s.64-1.57.64-2.49-.21-1.76-.64-2.5c-.43-.74-1-1.33-1.73-1.76-.73-.43-1.53-.65-2.42-.65h-6.29v9.84Z"/>
    <path class="cls-2" d="m1103.63,123.01h-5.96l-9.2-12.73-1.88,2.27v10.46h-4.59v-30.89h4.59v13.31l11.12-13.31h6l-12.22,14.58,12.14,16.31Z"/>
    <path class="cls-2" d="m1132.01,123.59c-2.09,0-4.05-.42-5.89-1.25s-3.46-1.98-4.85-3.45c-1.4-1.47-2.49-3.17-3.29-5.11-.79-1.93-1.19-4-1.19-6.21s.4-4.28,1.19-6.21c.79-1.93,1.89-3.64,3.29-5.11s3.02-2.62,4.85-3.45,3.8-1.25,5.89-1.25,4.08.42,5.91,1.25c1.84.83,3.46,1.98,4.85,3.45s2.49,3.17,3.28,5.11c.79,1.93,1.18,4,1.18,6.21s-.39,4.28-1.18,6.21c-.79,1.93-1.88,3.64-3.28,5.11-1.4,1.47-3.02,2.62-4.85,3.45-1.84.83-3.81,1.25-5.91,1.25Zm0-4.59c1.47,0,2.85-.3,4.13-.9,1.28-.6,2.41-1.43,3.39-2.48.98-1.05,1.74-2.27,2.29-3.64.55-1.38.83-2.84.83-4.4s-.28-3.03-.83-4.41c-.55-1.38-1.32-2.6-2.29-3.65-.98-1.05-2.11-1.88-3.39-2.47-1.28-.6-2.66-.89-4.13-.89s-2.85.3-4.13.9c-1.28.6-2.41,1.43-3.39,2.48s-1.74,2.27-2.29,3.64c-.55,1.38-.83,2.84-.83,4.4s.28,3.05.83,4.42c.55,1.38,1.32,2.59,2.29,3.64s2.11,1.88,3.39,2.47c1.28.6,2.66.89,4.13.89Z"/>
    <path class="cls-2" d="m1151.64,123.01v-30.89h18.2v4.59h-13.61v7.46h11.5v4.59h-11.5v14.25h-4.59Z"/>
  </g>
  <g>
    <path class="cls-2" d="m667.06,225.72c.32.81.78,1.41,1.36,1.79.61.39,1.45.58,2.52.58s1.89-.19,2.47-.58c.61-.39,1.08-.99,1.41-1.84.74-2.06,1.12-5.73,1.12-11.01v-43.73c0-4.27-.39-7.33-1.16-9.21-.33-.8-.78-1.38-1.36-1.75-.56-.35-1.33-.53-2.33-.53s-1.77.19-2.38.58c-.62.39-1.12.97-1.5,1.75-.42.87-.75,2.08-.97,3.64-.23,1.55-.34,3.38-.34,5.48v43.78c0,5.33.39,9.02,1.16,11.05Zm20.75,10.13c-1.78,2.42-4.07,4.25-6.88,5.48-2.81,1.22-6.11,1.84-9.89,1.84-7.66,0-13.32-2.45-16.97-7.37-3.49-4.78-5.24-11.88-5.24-21.28v-42.95c0-8.85,1.87-15.59,5.62-20.22,3.78-4.62,9.37-6.93,16.77-6.93s13.26,2.38,16.73,7.13c3.32,4.63,4.99,11.3,4.99,20.02v42.95c0,4.69-.42,8.81-1.26,12.36-.85,3.56-2.13,6.55-3.88,8.97Z"/>
    <path class="cls-2" d="m703.28,240.75v-95.22h22.88c1.87,0,3.61.17,5.24.48,1.65.29,3.15.73,4.51,1.31s2.57,1.35,3.64,2.28c1.07.95,1.96,2.02,2.71,3.25,1.42,2.36,2.48,5.24,3.2,8.63.74,3.39,1.14,7.34,1.21,11.83v1.99c0,3.18-.17,6.08-.48,8.73-.29,2.65-.75,5.08-1.36,7.27-.58,2.21-1.36,4.16-2.33,5.87-.95,1.75-2.18,3.22-3.73,4.41-1.55,1.2-3.33,2.08-5.33,2.67-2.01.56-4.27.82-6.79.82h-6.4v37.04h-16.97v-1.36Zm16.97-50.13h3.54c2.42,0,3.98-.88,4.65-2.67.84-2.16,1.26-6.42,1.26-12.8v-1.84c0-2.64-.13-4.95-.39-6.88-.23-1.94-.56-3.44-.97-4.51-.36-.93-.9-1.61-1.6-2.04-.68-.45-1.64-.68-2.86-.68h-3.64v31.42Z"/>
    <path class="cls-2" d="m753.63,240.75v-95.22h34.13v14.98h-17.16v24.68h16.29v14.69h-16.29v27.2h17.79v15.03h-34.76v-1.36Z"/>
    <path class="cls-2" d="m797.16,240.75v-95.22h13.48l.34.92,16.87,48-.63-16.87v-32.05h15.51v96.58h-12.41l-.34-.92-17.55-50.08.53,16v35h-15.8v-1.36Z"/>
    <path class="cls-2" d="m871.86,214.32v-9.7h16.24v10.76c0,1.68.05,3.22.15,4.61.1,1.39.22,2.57.39,3.54.19.97.41,1.77.68,2.38.35.81.82,1.41,1.41,1.79s1.37.58,2.38.58c1.87,0,3.1-.61,3.68-1.84.32-.74.58-1.79.78-3.15s.29-2.97.29-4.85c0-3.71-.67-6.96-1.99-9.74-.68-1.38-1.58-2.81-2.67-4.27-1.1-1.48-2.4-3.02-3.88-4.61l-6.93-7.13c-3.33-3.45-5.94-7.08-7.81-10.86-1.88-3.78-2.81-8.16-2.81-13.14,0-8.07,1.58-14.12,4.75-18.13,3.26-4.1,8.75-6.16,16.48-6.16,3.81,0,7.05.61,9.74,1.79,2.71,1.2,4.78,3.03,6.21,5.48,1.38,2.3,2.4,5.11,3.05,8.44.64,3.33.97,7.15.97,11.44v7.18h-15.8v-8.1c0-1.45-.05-2.79-.15-4.02-.1-1.22-.23-2.25-.39-3.1-.17-.84-.34-1.55-.53-2.13-.33-.74-.75-1.27-1.26-1.6-.48-.35-1.19-.53-2.08-.53-1.68,0-2.9.56-3.64,1.65-.85,1.26-1.26,3.25-1.26,5.96,0,1.39.11,2.64.34,3.73.25,1.07.59,2.01,1.02,2.81.9,1.65,2.62,3.83,5.14,6.55l7.76,8.39c2,2.13,3.75,4.3,5.24,6.5,1.52,2.17,2.78,4.36,3.78,6.59,2.06,4.5,3.1,9.38,3.1,14.64,0,4.5-.39,8.42-1.16,11.78-.78,3.37-1.96,6.18-3.54,8.44-1.62,2.3-3.82,4.01-6.59,5.14-2.79,1.16-6.1,1.75-9.94,1.75-7.89,0-13.42-2.55-16.58-7.66-3.04-4.91-4.56-11.97-4.56-21.19Z"/>
    <path class="cls-2" d="m939.09,225.72c.32.81.78,1.41,1.36,1.79.61.39,1.45.58,2.52.58s1.89-.19,2.47-.58c.61-.39,1.08-.99,1.41-1.84.74-2.06,1.12-5.73,1.12-11.01v-43.73c0-4.27-.39-7.33-1.16-9.21-.33-.8-.78-1.38-1.36-1.75-.56-.35-1.33-.53-2.33-.53s-1.77.19-2.38.58c-.62.39-1.12.97-1.5,1.75-.42.87-.75,2.08-.97,3.64-.23,1.55-.34,3.38-.34,5.48v43.78c0,5.33.39,9.02,1.16,11.05Zm20.75,10.13c-1.78,2.42-4.07,4.25-6.88,5.48-2.81,1.22-6.11,1.84-9.89,1.84-7.66,0-13.32-2.45-16.97-7.37-3.49-4.78-5.24-11.88-5.24-21.28v-42.95c0-8.85,1.87-15.59,5.62-20.22,3.78-4.62,9.37-6.93,16.77-6.93s13.26,2.38,16.73,7.13c3.32,4.63,4.99,11.3,4.99,20.02v42.95c0,4.69-.42,8.81-1.26,12.36-.85,3.56-2.13,6.55-3.88,8.97Z"/>
    <path class="cls-2" d="m1013.61,236.53c-3.53,4.42-9.11,6.64-16.77,6.64s-13.27-2.22-16.82-6.64c-3.49-4.33-5.24-10.96-5.24-19.88v-71.17h16.97v70.88c0,4.79.19,7.61.58,8.48.19.52.41.99.68,1.41.25.42.51.82.78,1.21.41.56,1.43.82,3.05.82s2.73-.44,3.35-1.31c.78-.99,1.24-2.28,1.41-3.83.06-.9.12-1.9.19-3.01.06-1.13.1-2.39.1-3.78v-70.88h16.92v71.17c0,8.96-1.73,15.59-5.19,19.88Z"/>
    <path class="cls-2" d="m1049.88,197.99l-3.2-.19v44.31h-16.97v-96.58h24.97c1.67,0,3.22.13,4.65.39,1.42.23,2.73.58,3.93,1.07,1.22.46,2.3,1.05,3.25,1.79.51.46.99.95,1.45,1.45.48.52.9,1.07,1.26,1.65.39.56.74,1.15,1.07,1.79.32.62.59,1.28.82,1.99.22.68.44,1.39.63,2.13.39,1.88.68,4,.87,6.35.19,2.33.29,4.93.29,7.81,0,5.89-.65,10.4-1.94,13.53-.91,2.33-2.4,4.16-4.46,5.48,2.06,1.24,3.59,3.3,4.56,6.21.68,2.07,1.18,5.09,1.5,9.07.32,3.95.48,8.99.48,15.13,0,2.75.01,5.31.05,7.66.02,2.36.06,4.3.1,5.82.02,1.53.07,2.75.15,3.68.06.95.11,1.53.15,1.75l.73,1.84h-17.07l-.34-.78c-.33-.64-.53-2.74-.63-6.3-.07-3.55-.1-10.05-.1-19.49v-8.44c0-1.94-.12-3.55-.34-4.85-.23-1.28-.52-2.18-.87-2.67-.75-.99-2.41-1.53-4.99-1.6Zm-3.15-14.01h4.36c.32,0,.61-.01.87-.05.29-.02.55-.06.78-.1.22-.02.44-.07.63-.15.19-.1.34-.17.44-.24.12-.1.25-.19.39-.29.68-.61,1.14-1.77,1.41-3.49.16-.9.27-2.11.34-3.64.1-1.52.15-3.26.15-5.24v-.58c0-4.87-.38-8-1.12-9.36-.62-1.09-2.21-1.65-4.75-1.65h-3.49v24.77Z"/>
    <path class="cls-2" d="m1120.72,236.04c-3.47,4.75-8.9,7.13-16.29,7.13s-12.94-2.52-16.63-7.56c-3.59-4.85-5.38-11.78-5.38-20.8v-40.87c0-14.54,3.9-23.68,11.73-27.44,2.87-1.36,6.33-2.04,10.38-2.04,6.98,0,12.24,2.25,15.8,6.74,3.55,4.5,5.33,11.03,5.33,19.59v14.21h-16.48v-13.33c0-1.55-.05-2.97-.15-4.27-.1-1.28-.24-2.39-.44-3.3-.17-.9-.34-1.66-.53-2.28-.33-.8-.76-1.38-1.31-1.75-.56-.35-1.31-.53-2.28-.53-.65,0-1.2.1-1.65.29-.46.17-.86.42-1.21.78-.33.36-.62.82-.87,1.41-.85,2.04-1.26,5.24-1.26,9.6v43.88c0,4.85.4,8.29,1.21,10.33.35.85.8,1.45,1.36,1.84.58.36,1.33.53,2.28.53.61,0,1.14-.06,1.6-.19.45-.16.84-.44,1.16-.82.32-.39.59-.85.82-1.41.41-.99.73-2.38.92-4.12.22-1.77.34-3.89.34-6.35v-14.74h16.68v14.59c0,9.34-1.72,16.31-5.14,20.9Z"/>
    <path class="cls-2" d="m1134.84,240.75v-95.22h34.13v14.98h-17.16v24.68h16.29v14.69h-16.29v27.2h17.79v15.03h-34.76v-1.36Z"/>
  </g>
  <g>
    <path class="cls-2" d="m648.83,355.31v-95.22h22.88c1.87,0,3.61.17,5.24.48,1.65.29,3.15.73,4.51,1.31s2.57,1.35,3.64,2.28c1.07.95,1.96,2.02,2.71,3.25,1.42,2.36,2.48,5.24,3.2,8.63.74,3.39,1.14,7.34,1.21,11.83v1.99c0,3.18-.17,6.08-.48,8.73-.29,2.65-.75,5.08-1.36,7.27-.58,2.21-1.36,4.16-2.33,5.87-.95,1.75-2.18,3.22-3.73,4.41-1.55,1.2-3.33,2.08-5.33,2.67-2.01.56-4.27.82-6.79.82h-6.4v37.04h-16.97v-1.36Zm16.97-50.13h3.54c2.42,0,3.98-.88,4.65-2.67.84-2.16,1.26-6.42,1.26-12.8v-1.84c0-2.64-.13-4.95-.39-6.88-.23-1.94-.56-3.44-.97-4.51-.36-.93-.9-1.61-1.6-2.04-.68-.45-1.64-.68-2.86-.68h-3.64v31.42Z"/>
    <path class="cls-2" d="m719.35,312.55l-3.2-.19v44.31h-16.97v-96.58h24.97c1.67,0,3.22.13,4.65.39,1.42.23,2.73.58,3.93,1.07,1.22.46,2.3,1.05,3.25,1.79.51.46.99.95,1.45,1.45.48.52.9,1.07,1.26,1.65.39.56.74,1.15,1.07,1.79.32.62.59,1.28.82,1.99.22.68.44,1.39.63,2.13.39,1.88.68,4,.87,6.35.19,2.33.29,4.93.29,7.81,0,5.89-.65,10.4-1.94,13.53-.91,2.33-2.4,4.16-4.46,5.48,2.06,1.24,3.59,3.3,4.56,6.21.68,2.07,1.18,5.09,1.5,9.07.32,3.95.48,8.99.48,15.13,0,2.75.01,5.31.05,7.66.02,2.36.06,4.3.1,5.82.02,1.53.07,2.75.15,3.68.06.95.11,1.53.15,1.75l.73,1.84h-17.07l-.34-.78c-.33-.64-.53-2.74-.63-6.3-.07-3.55-.1-10.05-.1-19.49v-8.44c0-1.94-.12-3.55-.34-4.85-.23-1.28-.52-2.18-.87-2.67-.75-.99-2.41-1.53-4.99-1.6Zm-3.15-14.01h4.36c.32,0,.61-.01.87-.05.29-.02.55-.06.78-.1.22-.02.44-.07.63-.15.19-.1.34-.17.44-.24.12-.1.25-.19.39-.29.68-.61,1.14-1.77,1.41-3.49.16-.9.27-2.11.34-3.64.1-1.52.15-3.26.15-5.24v-.58c0-4.87-.38-8-1.12-9.36-.62-1.09-2.21-1.65-4.75-1.65h-3.49v24.77Z"/>
    <path class="cls-2" d="m770.12,340.28c.32.81.78,1.41,1.36,1.79.61.39,1.45.58,2.52.58s1.89-.19,2.47-.58c.61-.39,1.08-.99,1.41-1.84.74-2.06,1.12-5.73,1.12-11.01v-43.73c0-4.27-.39-7.33-1.16-9.21-.33-.8-.78-1.38-1.36-1.75-.56-.35-1.33-.53-2.33-.53s-1.77.19-2.38.58c-.62.39-1.12.97-1.5,1.75-.42.87-.75,2.08-.97,3.64-.23,1.55-.34,3.38-.34,5.48v43.78c0,5.33.39,9.02,1.16,11.05Zm20.75,10.13c-1.78,2.42-4.07,4.25-6.88,5.48-2.81,1.22-6.11,1.84-9.89,1.84-7.66,0-13.32-2.45-16.97-7.37-3.49-4.78-5.24-11.88-5.24-21.28v-42.95c0-8.85,1.87-15.59,5.62-20.22,3.78-4.62,9.37-6.93,16.77-6.93s13.26,2.38,16.73,7.13c3.32,4.63,4.99,11.3,4.99,20.02v42.95c0,4.69-.42,8.81-1.26,12.36-.85,3.56-2.13,6.55-3.88,8.97Z"/>
    <path class="cls-2" d="m825.3,357.58c-6.38,0-11.34-2.5-14.93-7.51-3.47-4.87-5.19-12.29-5.19-22.25v-40.77c0-1.28.02-2.52.1-3.68.06-1.16.16-2.29.29-3.39.16-1.13.34-2.19.53-3.2.22-1.03.48-2.01.78-2.96.29-.97.61-1.87.97-2.71.39-.84.79-1.65,1.21-2.42.45-.8.93-1.56,1.45-2.28,1.84-2.45,4.19-4.29,7.08-5.53,2.91-1.22,6.3-1.84,10.18-1.84,1.36,0,2.64.08,3.88.24,1.26.13,2.44.36,3.54.68,1.13.33,2.16.72,3.1,1.16.97.42,1.87.95,2.71,1.55.84.62,1.6,1.31,2.28,2.08.7.75,1.33,1.59,1.89,2.52.55.91,1.02,1.88,1.41,2.91,1.55,4.3,2.33,10.11,2.33,17.4v8h-16v-11.15c0-4.1-.42-6.91-1.26-8.44-.65-1.26-1.96-1.89-3.93-1.89-1.04,0-1.88.19-2.52.58-.65.36-1.19.96-1.6,1.79-.19.42-.38.97-.53,1.65-.17.65-.32,1.41-.44,2.28-.13.85-.23,1.83-.29,2.96-.07,1.1-.1,2.3-.1,3.59v40.68c0,2.98.11,5.51.34,7.61.22,2.11.53,3.68.92,4.75.39.97.9,1.68,1.55,2.13.68.42,1.56.63,2.67.63s1.95-.22,2.67-.68c.7-.48,1.31-1.27,1.79-2.38.32-.74.59-1.71.82-2.91.22-1.19.4-2.59.53-4.22.12-1.65.19-3.47.19-5.48v-11.3h-7.18v-13.09h22.35v53.96h-8.82l-.19-1.02-1.26-5.14c-.48.81-1.05,1.55-1.7,2.23-.62.68-1.31,1.31-2.08,1.89-2.79,1.96-5.96,2.96-9.55,2.96Z"/>
    <path class="cls-2" d="m879.85,312.55l-3.2-.19v44.31h-16.97v-96.58h24.97c1.67,0,3.22.13,4.65.39,1.42.23,2.73.58,3.93,1.07,1.22.46,2.3,1.05,3.25,1.79.51.46.99.95,1.45,1.45.48.52.9,1.07,1.26,1.65.39.56.74,1.15,1.07,1.79.32.62.59,1.28.82,1.99.22.68.44,1.39.63,2.13.39,1.88.68,4,.87,6.35.19,2.33.29,4.93.29,7.81,0,5.89-.65,10.4-1.94,13.53-.91,2.33-2.4,4.16-4.46,5.48,2.06,1.24,3.59,3.3,4.56,6.21.68,2.07,1.18,5.09,1.5,9.07.32,3.95.48,8.99.48,15.13,0,2.75.01,5.31.05,7.66.02,2.36.06,4.3.1,5.82.02,1.53.07,2.75.15,3.68.06.95.11,1.53.15,1.75l.73,1.84h-17.07l-.34-.78c-.33-.64-.53-2.74-.63-6.3-.07-3.55-.1-10.05-.1-19.49v-8.44c0-1.94-.12-3.55-.34-4.85-.23-1.28-.52-2.18-.87-2.67-.75-.99-2.41-1.53-4.99-1.6Zm-3.15-14.01h4.36c.32,0,.61-.01.87-.05.29-.02.55-.06.78-.1.22-.02.44-.07.63-.15.19-.1.34-.17.44-.24.12-.1.25-.19.39-.29.68-.61,1.14-1.77,1.41-3.49.16-.9.27-2.11.34-3.64.1-1.52.15-3.26.15-5.24v-.58c0-4.87-.38-8-1.12-9.36-.62-1.09-2.21-1.65-4.75-1.65h-3.49v24.77Z"/>
    <path class="cls-2" d="m938.52,325.78l-4.8-36.12-4.46,36.12h9.26Zm-29.23,29.33l13.38-93.91.15-1.12h21.19l.19,1.12,14.25,93.91.19,1.55h-16.05l-.15-1.21-2.08-15.56h-12.8l-1.84,15.56-.19,1.21h-16.48l.24-1.55Z"/>
    <path class="cls-2" d="m965.61,355.31v-95.22h20.22l.19,1.07,11.93,61.67,11.3-61.62.19-1.12h20.31v96.58h-15.42v-36.36l.29-16.53-9.74,51.39-.19,1.07h-13.57l-.24-1.07-10.23-52.07.24,17.21v36.36h-15.27v-1.36Z"/>
    <path class="cls-2" d="m1077.88,340.28c.32.81.78,1.41,1.36,1.79.61.39,1.45.58,2.52.58s1.89-.19,2.47-.58c.61-.39,1.08-.99,1.41-1.84.74-2.06,1.12-5.73,1.12-11.01v-43.73c0-4.27-.39-7.33-1.16-9.21-.33-.8-.78-1.38-1.36-1.75-.56-.35-1.33-.53-2.33-.53s-1.77.19-2.38.58c-.62.39-1.12.97-1.5,1.75-.42.87-.75,2.08-.97,3.64-.23,1.55-.34,3.38-.34,5.48v43.78c0,5.33.39,9.02,1.16,11.05Zm20.75,10.13c-1.78,2.42-4.07,4.25-6.88,5.48-2.81,1.22-6.11,1.84-9.89,1.84-7.66,0-13.32-2.45-16.97-7.37-3.49-4.78-5.24-11.88-5.24-21.28v-42.95c0-8.85,1.87-15.59,5.62-20.22,3.78-4.62,9.37-6.93,16.77-6.93s13.26,2.38,16.73,7.13c3.32,4.63,4.99,11.3,4.99,20.02v42.95c0,4.69-.42,8.81-1.26,12.36-.85,3.56-2.13,6.55-3.88,8.97Z"/>
    <path class="cls-2" d="m1114.05,355.31v-95.22h34.86v15.13h-17.94v22.25h16.68v15.17h-16.68v44.02h-16.92v-1.36Z"/>
    <path class="cls-2" d="m1156.51,355.31v-95.22h34.86v15.13h-17.94v22.25h16.68v15.17h-16.68v44.02h-16.92v-1.36Z"/>
    <path class="cls-2" d="m1199.55,355.31v-95.22h16.97v96.58h-16.97v-1.36Z"/>
    <path class="cls-2" d="m1265.6,350.6c-3.47,4.75-8.9,7.13-16.29,7.13s-12.94-2.52-16.63-7.56c-3.59-4.85-5.38-11.78-5.38-20.8v-40.87c0-14.54,3.9-23.68,11.73-27.44,2.87-1.36,6.33-2.04,10.38-2.04,6.98,0,12.24,2.25,15.8,6.74,3.55,4.5,5.33,11.03,5.33,19.59v14.21h-16.48v-13.33c0-1.55-.05-2.97-.15-4.27-.1-1.28-.24-2.39-.44-3.3-.17-.9-.34-1.66-.53-2.28-.33-.8-.76-1.38-1.31-1.75-.56-.35-1.31-.53-2.28-.53-.65,0-1.2.1-1.65.29-.46.17-.86.42-1.21.78-.33.36-.62.82-.87,1.41-.85,2.04-1.26,5.24-1.26,9.6v43.88c0,4.85.4,8.29,1.21,10.33.35.85.8,1.45,1.36,1.84.58.36,1.33.53,2.28.53.61,0,1.14-.06,1.6-.19.45-.16.84-.44,1.16-.82.32-.39.59-.85.82-1.41.41-.99.73-2.38.92-4.12.22-1.77.34-3.89.34-6.35v-14.74h16.68v14.59c0,9.34-1.72,16.31-5.14,20.9Z"/>
    <path class="cls-2" d="m1279.72,355.31v-95.22h34.13v14.98h-17.16v24.68h16.29v14.69h-16.29v27.2h17.79v15.03h-34.76v-1.36Z"/>
    <path class="cls-2" d="m1321.35,328.88v-9.7h16.24v10.76c0,1.68.05,3.22.15,4.61.1,1.39.22,2.57.39,3.54.19.97.41,1.77.68,2.38.35.81.82,1.41,1.41,1.79s1.37.58,2.38.58c1.87,0,3.1-.61,3.68-1.84.32-.74.58-1.79.78-3.15s.29-2.97.29-4.85c0-3.71-.67-6.96-1.99-9.74-.68-1.38-1.58-2.81-2.67-4.27-1.1-1.48-2.4-3.02-3.88-4.61l-6.93-7.13c-3.33-3.45-5.94-7.08-7.81-10.86-1.88-3.78-2.81-8.16-2.81-13.14,0-8.07,1.58-14.12,4.75-18.13,3.26-4.1,8.75-6.16,16.48-6.16,3.81,0,7.05.61,9.74,1.79,2.71,1.2,4.78,3.03,6.21,5.48,1.38,2.3,2.4,5.11,3.05,8.44.64,3.33.97,7.15.97,11.44v7.18h-15.8v-8.1c0-1.45-.05-2.79-.15-4.02-.1-1.22-.23-2.25-.39-3.1-.17-.84-.34-1.55-.53-2.13-.33-.74-.75-1.27-1.26-1.6-.48-.35-1.19-.53-2.08-.53-1.68,0-2.9.56-3.64,1.65-.85,1.26-1.26,3.25-1.26,5.96,0,1.39.11,2.64.34,3.73.25,1.07.59,2.01,1.02,2.81.9,1.65,2.62,3.83,5.14,6.55l7.76,8.39c2,2.13,3.75,4.3,5.24,6.5,1.52,2.17,2.78,4.36,3.78,6.59,2.06,4.5,3.1,9.38,3.1,14.64,0,4.5-.39,8.42-1.16,11.78-.78,3.37-1.96,6.18-3.54,8.44-1.62,2.3-3.82,4.01-6.59,5.14-2.79,1.16-6.1,1.75-9.94,1.75-7.89,0-13.42-2.55-16.58-7.66-3.04-4.91-4.56-11.97-4.56-21.19Z"/>
  </g>
</svg>